<?xml version="1.0" encoding="UTF-8"?>
<!DOCTYPE svg PUBLIC "-//W3C//DTD SVG 1.1//EN" "http://www.w3.org/Graphics/SVG/1.1/DTD/svg11.dtd">
<!-- Creator: CorelDRAW -->
<svg xmlns="http://www.w3.org/2000/svg" xml:space="preserve" width="3000px" height="3000px" version="1.1" style="shape-rendering:geometricPrecision; text-rendering:geometricPrecision; image-rendering:optimizeQuality; fill-rule:evenodd; clip-rule:evenodd"
viewBox="0 0 56.58 56.58"
 xmlns:xlink="http://www.w3.org/1999/xlink"
 xmlns:xodm="http://www.corel.com/coreldraw/odm/2003">
 <defs>
  <style type="text/css">
   <![CDATA[
    .fil0 {fill:#FEFEFE}
    .fil1 {fill:#FEFEFE;fill-rule:nonzero}
   ]]>
  </style>
 </defs>
 <g id="Camada_x0020_1">
  <metadata id="CorelCorpID_0Corel-Layer"/>
  <path class="fil0" d="M56.58 0l0 13.4 -3.29 0 0 -10.12 -10.12 0 0 -3.28 13.41 0zm0 43.17l0 13.41 -13.41 0 0 -3.29 10.12 0 0 -10.12 3.29 0zm-43.18 13.41l-13.4 0 0 -13.41 3.28 0 0 10.12 10.12 0 0 3.29zm-13.4 -43.18l0 -13.4 13.4 0 0 3.28 -10.12 0 0 10.12 -3.28 0z"/>
  <g id="_2946674023584">
   <path class="fil1" d="M14.39 17.69l0 -4.38 2.83 0 0 7.91 -2.77 0 0 -1.04c-0.63,0.82 -1.45,1.23 -2.47,1.23 -0.81,0 -1.47,-0.26 -1.98,-0.78 -0.5,-0.51 -0.75,-1.25 -0.75,-2.2l0 -5.12 2.83 0 0 4.52c0,0.79 0.35,1.18 1.07,1.18 0.36,0 0.65,-0.11 0.89,-0.34 0.24,-0.23 0.35,-0.56 0.35,-0.98z"/>
   <path class="fil1" d="M28.39 13.12c0.87,0 1.55,0.27 2.04,0.79 0.5,0.53 0.75,1.28 0.75,2.27l0 5.04 -2.83 0 0 -4.52c0,-0.4 -0.07,-0.7 -0.23,-0.89 -0.15,-0.2 -0.4,-0.29 -0.76,-0.29 -0.35,0 -0.63,0.11 -0.83,0.33 -0.21,0.22 -0.31,0.55 -0.31,0.99l0 4.38 -2.82 0 0 -4.52c0,-0.4 -0.08,-0.7 -0.23,-0.89 -0.15,-0.2 -0.41,-0.29 -0.77,-0.29 -0.35,0 -0.62,0.11 -0.83,0.33 -0.2,0.22 -0.3,0.55 -0.3,0.99l0 4.38 -2.83 0 0 -7.91 2.77 0 0 1.04c0.61,-0.82 1.35,-1.23 2.22,-1.23 1.17,0 1.98,0.46 2.44,1.37 0.73,-0.91 1.56,-1.37 2.52,-1.37z"/>
   <path class="fil1" d="M14.27 25.31c1.04,0 1.87,0.37 2.47,1.12 0.6,0.75 0.91,1.76 0.91,3.02 0,1.27 -0.31,2.28 -0.91,3.03 -0.6,0.74 -1.43,1.12 -2.47,1.12 -0.95,0 -1.68,-0.35 -2.19,-1.05l0 3.87 -2.83 0 0 -10.92 2.75 0 0 0.98c0.5,-0.78 1.26,-1.17 2.27,-1.17zm-0.84 2.21c-0.92,0 -1.38,0.64 -1.38,1.93 0,1.29 0.46,1.94 1.38,1.94 0.92,0 1.38,-0.67 1.38,-2 0,-1.25 -0.46,-1.87 -1.38,-1.87z"/>
   <path class="fil1" d="M26.5 29.76l0 0.51 -5.79 0c0.18,0.89 0.71,1.33 1.58,1.33 0.65,0 1.12,-0.23 1.39,-0.69l2.64 0c-0.21,0.85 -0.69,1.51 -1.43,1.98 -0.74,0.47 -1.61,0.71 -2.6,0.71 -1.27,0 -2.3,-0.38 -3.09,-1.14 -0.79,-0.76 -1.18,-1.76 -1.18,-3.01 0,-1.25 0.39,-2.26 1.17,-3 0.77,-0.76 1.8,-1.14 3.06,-1.14 1.27,0 2.3,0.39 3.09,1.18 0.78,0.79 1.16,1.88 1.16,3.27zm-4.28 -2.45c-0.83,0 -1.34,0.43 -1.51,1.28l3.08 0c-0.19,-0.85 -0.71,-1.28 -1.57,-1.28z"/>
   <path class="fil1" d="M13.17 45.78c-1.29,0 -2.32,-0.37 -3.07,-1.13 -0.77,-0.76 -1.15,-1.76 -1.15,-3.01 0,-1.27 0.38,-2.27 1.15,-3.02 0.74,-0.75 1.77,-1.12 3.07,-1.12 1.13,0 2.06,0.29 2.79,0.88 0.72,0.59 1.14,1.39 1.24,2.39l-2.78 0c-0.11,-0.68 -0.53,-1.02 -1.25,-1.02 -0.93,0 -1.39,0.63 -1.39,1.89 0,1.25 0.46,1.87 1.39,1.87 0.8,0 1.24,-0.38 1.31,-1.16l2.77 0c-0.06,1.05 -0.46,1.89 -1.2,2.5 -0.75,0.62 -1.71,0.93 -2.88,0.93z"/>
   <path class="fil1" d="M26.25 45.6l-2.84 0c-0.11,-0.24 -0.17,-0.52 -0.19,-0.81 -0.55,0.66 -1.39,0.99 -2.52,0.99 -0.87,0 -1.57,-0.22 -2.11,-0.65 -0.54,-0.44 -0.81,-1.05 -0.81,-1.82 0,-0.74 0.25,-1.32 0.76,-1.72 0.5,-0.41 1.3,-0.65 2.4,-0.75l1.28 -0.1c0.34,-0.03 0.58,-0.1 0.73,-0.2 0.14,-0.1 0.22,-0.26 0.22,-0.46 0,-0.42 -0.33,-0.63 -1,-0.63 -0.41,0 -0.7,0.06 -0.87,0.17 -0.16,0.12 -0.27,0.34 -0.31,0.67l-2.79 0c0.07,-0.94 0.43,-1.64 1.08,-2.1 0.65,-0.46 1.62,-0.69 2.92,-0.69 2.49,0 3.73,0.83 3.73,2.48l0 4.19c0,0.67 0.11,1.14 0.32,1.43zm-4.58 -1.63c1,0 1.5,-0.49 1.5,-1.48l0 -0.46c-0.11,0.15 -0.35,0.25 -0.71,0.3l-0.9 0.09c-0.61,0.07 -0.91,0.33 -0.91,0.79 0,0.23 0.09,0.42 0.27,0.56 0.18,0.14 0.43,0.2 0.75,0.2z"/>
   <path class="fil1" d="M31.88 36.73l-0.61 0c-0.61,0 -0.92,0.25 -0.92,0.74l0 0.21 1.53 0 0 2 -1.53 0 0 5.92 -2.82 0 0 -5.92 -1.12 0 0 -2 1.12 0 0 -0.32c0,-0.83 0.25,-1.49 0.77,-2 0.52,-0.51 1.29,-0.76 2.33,-0.76 0.35,0 0.77,0.03 1.25,0.08l0 2.05z"/>
   <path class="fil1" d="M40.68 41.95l0 0.51 -5.8 0c0.18,0.89 0.71,1.33 1.58,1.33 0.65,0 1.12,-0.23 1.39,-0.69l2.64 0c-0.21,0.85 -0.69,1.51 -1.43,1.98 -0.74,0.47 -1.61,0.7 -2.6,0.7 -1.27,0 -2.3,-0.37 -3.09,-1.13 -0.79,-0.76 -1.18,-1.76 -1.18,-3.01 0,-1.26 0.39,-2.26 1.17,-3.01 0.77,-0.75 1.8,-1.13 3.07,-1.13 1.26,0 2.29,0.39 3.08,1.18 0.78,0.79 1.17,1.88 1.17,3.27zm-4.29 -2.46c-0.83,0 -1.34,0.43 -1.51,1.29l3.08 0c-0.18,-0.86 -0.71,-1.29 -1.57,-1.29z"/>
   <g>
    <path class="fil0" d="M43.03 39.63c-0.03,-0.81 0.62,-1.47 1.39,-1.5 0.82,-0.03 1.48,0.61 1.51,1.39 0.03,0.81 -0.61,1.47 -1.39,1.5 -0.82,0.03 -1.47,-0.61 -1.51,-1.39zm1.29 -1.84c-0.43,0.05 -0.72,0.19 -1.02,0.44 -0.21,0.17 -0.41,0.48 -0.5,0.73 -0.09,0.23 -0.13,0.51 -0.1,0.78 0.09,0.93 0.91,1.71 1.95,1.61 0.26,-0.02 0.48,-0.09 0.68,-0.2 0.63,-0.33 1,-1.04 0.93,-1.75 -0.04,-0.43 -0.21,-0.76 -0.49,-1.06 -0.1,-0.11 -0.24,-0.22 -0.37,-0.3 -0.32,-0.19 -0.7,-0.28 -1.08,-0.25z"/>
    <path class="fil0" d="M44.16 38.95c0.09,0 0.37,-0.01 0.44,0.02 0.1,0.03 0.19,0.13 0.19,0.26 -0.01,0.13 -0.09,0.23 -0.2,0.26 -0.06,0.02 -0.35,0.02 -0.43,0.02l0 -0.56zm-0.42 1.66l0.42 0 0 -0.69c0.05,0 0.1,0 0.16,0 0.04,0 0.12,-0.01 0.15,0.02 0.1,0.11 0.25,0.52 0.3,0.67l0.45 0 -0.08 -0.2c-0.06,-0.14 -0.09,-0.27 -0.16,-0.41l-0.09 -0.19c0.06,-0.03 0.15,-0.13 0.19,-0.19 0.31,-0.44 0,-1.08 -0.57,-1.08 -0.26,-0.01 -0.52,-0.01 -0.77,0l0 2.07z"/>
   </g>
   <polygon class="fil0" points="24.38,24.29 24.38,24.94 20.13,24.94 20.13,24.29 20.13,23.65 24.38,23.65 "/>
   <polygon class="fil0" points="38.64,36.48 38.64,37.13 34.39,37.13 34.39,36.48 34.39,35.84 38.64,35.84 "/>
   <path class="fil1" d="M35.82 26.34l0 -3.85 2.82 0 0 10.92 -2.74 0 0 -0.95c-0.52,0.76 -1.28,1.14 -2.26,1.14 -1.04,0 -1.86,-0.38 -2.47,-1.12 -0.6,-0.75 -0.9,-1.76 -0.9,-3.03 0,-1.26 0.3,-2.27 0.9,-3.02 0.61,-0.75 1.43,-1.12 2.47,-1.12 0.93,0 1.66,0.34 2.18,1.03zm-2.71 3.18c0,1.24 0.46,1.87 1.38,1.87 0.92,0 1.38,-0.65 1.38,-1.94 0,-1.29 -0.46,-1.93 -1.38,-1.93 -0.92,0 -1.38,0.67 -1.38,2z"/>
   <path class="fil1" d="M47.63 29.76l0 0.51 -5.8 0c0.19,0.89 0.71,1.33 1.58,1.33 0.66,0 1.12,-0.23 1.4,-0.69l2.64 0c-0.22,0.85 -0.69,1.51 -1.43,1.98 -0.75,0.47 -1.62,0.71 -2.61,0.71 -1.27,0 -2.29,-0.38 -3.08,-1.14 -0.79,-0.76 -1.18,-1.76 -1.18,-3.01 0,-1.25 0.38,-2.26 1.16,-3 0.78,-0.76 1.8,-1.14 3.07,-1.14 1.27,0 2.3,0.39 3.08,1.18 0.78,0.79 1.17,1.88 1.17,3.27zm-4.28 -2.45c-0.84,0 -1.35,0.43 -1.52,1.28l3.08 0c-0.18,-0.85 -0.7,-1.28 -1.56,-1.28z"/>
  </g>
 </g>
</svg>
