<?xml version="1.0" encoding="UTF-8"?>
<!DOCTYPE svg PUBLIC "-//W3C//DTD SVG 1.1//EN" "http://www.w3.org/Graphics/SVG/1.1/DTD/svg11.dtd">
<!-- Creator: CorelDRAW -->
<svg xmlns="http://www.w3.org/2000/svg" xml:space="preserve" width="3000px" height="3000px" version="1.1" style="shape-rendering:geometricPrecision; text-rendering:geometricPrecision; image-rendering:optimizeQuality; fill-rule:evenodd; clip-rule:evenodd"
viewBox="0 0 52.08 52.08"
 xmlns:xlink="http://www.w3.org/1999/xlink"
 xmlns:xodm="http://www.corel.com/coreldraw/odm/2003">
 <defs>
  <style type="text/css">
   <![CDATA[
    .fil3 {fill:#00A859}
    .fil0 {fill:#576B2E}
    .fil2 {fill:#00A859;fill-rule:nonzero}
    .fil1 {fill:#576B2E;fill-rule:nonzero}
   ]]>
  </style>
 </defs>
 <g id="Camada_x0020_1">
  <metadata id="CorelCorpID_0Corel-Layer"/>
  <path class="fil0" d="M52.08 0l0 12.34 -3.02 0 0 -9.32 -9.32 0 0 -3.02 12.34 0zm0 39.74l0 12.34 -12.34 0 0 -3.02 9.32 0 0 -9.32 3.02 0zm-39.74 12.34l-12.34 0 0 -12.34 3.02 0 0 9.32 9.32 0 0 3.02zm-12.34 -39.74l0 -12.34 12.34 0 0 3.02 -9.32 0 0 9.32 -3.02 0z"/>
  <g id="_2911023481456">
   <path class="fil1" d="M15.81 16.29l0 -4.04 2.6 0 0 7.29 -2.55 0 0 -0.96c-0.58,0.75 -1.34,1.13 -2.27,1.13 -0.75,0 -1.36,-0.24 -1.82,-0.72 -0.46,-0.47 -0.69,-1.15 -0.69,-2.02l0 -4.72 2.6 0 0 4.17c0,0.72 0.32,1.08 0.98,1.08 0.33,0 0.61,-0.1 0.82,-0.31 0.22,-0.22 0.33,-0.51 0.33,-0.9z"/>
   <path class="fil1" d="M28.69 12.08c0.8,0 1.43,0.24 1.89,0.73 0.45,0.48 0.68,1.18 0.68,2.08l0 4.65 -2.6 0 0 -4.17c0,-0.37 -0.07,-0.64 -0.21,-0.82 -0.14,-0.18 -0.38,-0.27 -0.71,-0.27 -0.32,0 -0.57,0.11 -0.76,0.31 -0.19,0.2 -0.28,0.5 -0.28,0.91l0 4.04 -2.6 0 0 -4.17c0,-0.37 -0.07,-0.64 -0.21,-0.82 -0.14,-0.18 -0.38,-0.27 -0.71,-0.27 -0.32,0 -0.57,0.11 -0.76,0.31 -0.19,0.2 -0.28,0.5 -0.28,0.91l0 4.04 -2.6 0 0 -7.29 2.54 0 0 0.96c0.56,-0.75 1.25,-1.13 2.05,-1.13 1.07,0 1.82,0.42 2.24,1.26 0.67,-0.84 1.44,-1.26 2.32,-1.26z"/>
   <path class="fil1" d="M15.7 23.3c0.96,0 1.71,0.34 2.27,1.03 0.55,0.69 0.83,1.62 0.83,2.79 0,1.16 -0.28,2.09 -0.83,2.78 -0.56,0.68 -1.31,1.03 -2.27,1.03 -0.88,0 -1.55,-0.32 -2.02,-0.96l0 3.56 -2.6 0 0 -10.06 2.52 0 0 0.9c0.47,-0.71 1.16,-1.07 2.1,-1.07zm-0.78 2.04c-0.85,0 -1.27,0.59 -1.27,1.78 0,1.18 0.42,1.77 1.27,1.77 0.85,0 1.27,-0.61 1.27,-1.83 0,-1.15 -0.42,-1.72 -1.27,-1.72z"/>
   <path class="fil1" d="M26.96 27.4l0 0.46 -5.34 0c0.17,0.82 0.65,1.23 1.45,1.23 0.61,0 1.04,-0.21 1.29,-0.63l2.43 0c-0.2,0.78 -0.64,1.39 -1.31,1.82 -0.69,0.43 -1.49,0.65 -2.41,0.65 -1.16,0 -2.11,-0.35 -2.84,-1.05 -0.72,-0.69 -1.08,-1.62 -1.08,-2.76 0,-1.16 0.36,-2.09 1.07,-2.77 0.72,-0.7 1.66,-1.05 2.83,-1.05 1.16,0 2.11,0.36 2.83,1.09 0.72,0.72 1.08,1.73 1.08,3.01zm-3.94 -2.26c-0.77,0 -1.24,0.39 -1.4,1.18l2.84 0c-0.17,-0.79 -0.65,-1.18 -1.44,-1.18z"/>
   <path class="fil2" d="M14.68 42.15c-1.19,0 -2.13,-0.35 -2.83,-1.05 -0.7,-0.69 -1.06,-1.62 -1.06,-2.76 0,-1.17 0.36,-2.1 1.06,-2.79 0.69,-0.68 1.63,-1.03 2.83,-1.03 1.04,0 1.9,0.27 2.57,0.81 0.67,0.55 1.05,1.28 1.14,2.2l-2.55 0c-0.11,-0.62 -0.49,-0.93 -1.16,-0.93 -0.85,0 -1.27,0.58 -1.27,1.74 0,1.14 0.42,1.72 1.27,1.72 0.74,0 1.15,-0.36 1.21,-1.07l2.55 0c-0.06,0.97 -0.43,1.73 -1.11,2.3 -0.68,0.57 -1.57,0.86 -2.65,0.86z"/>
   <path class="fil2" d="M26.73 41.98l-2.62 0c-0.1,-0.23 -0.16,-0.48 -0.18,-0.75 -0.5,0.61 -1.27,0.92 -2.32,0.92 -0.8,0 -1.44,-0.2 -1.94,-0.61 -0.49,-0.4 -0.74,-0.96 -0.74,-1.66 0,-0.69 0.23,-1.22 0.69,-1.59 0.46,-0.38 1.2,-0.6 2.22,-0.69l1.17 -0.1c0.31,-0.03 0.54,-0.09 0.67,-0.18 0.14,-0.1 0.21,-0.24 0.21,-0.43 0,-0.38 -0.31,-0.57 -0.92,-0.57 -0.38,0 -0.64,0.05 -0.8,0.16 -0.15,0.11 -0.25,0.31 -0.29,0.61l-2.57 0c0.07,-0.86 0.4,-1.51 1,-1.93 0.59,-0.43 1.49,-0.64 2.69,-0.64 2.29,0 3.43,0.76 3.43,2.29l0 3.86c0,0.61 0.1,1.05 0.3,1.31zm-4.23 -1.5c0.93,0 1.39,-0.45 1.39,-1.37l0 -0.42c-0.11,0.14 -0.32,0.23 -0.65,0.28l-0.84 0.09c-0.55,0.05 -0.83,0.29 -0.83,0.72 0,0.21 0.08,0.38 0.25,0.51 0.16,0.13 0.39,0.19 0.68,0.19z"/>
   <path class="fil2" d="M31.91 33.82l-0.56 0c-0.57,0 -0.85,0.22 -0.85,0.67l0 0.2 1.41 0 0 1.84 -1.41 0 0 5.45 -2.6 0 0 -5.45 -1.03 0 0 -1.84 1.03 0 0 -0.3c0,-0.76 0.24,-1.37 0.71,-1.84 0.48,-0.46 1.19,-0.7 2.14,-0.7 0.33,0 0.72,0.03 1.16,0.07l0 1.9z"/>
   <path class="fil2" d="M40 38.62l0 0.46 -5.34 0c0.17,0.82 0.66,1.23 1.46,1.23 0.6,0 1.03,-0.21 1.28,-0.63l2.43 0c-0.19,0.78 -0.63,1.39 -1.31,1.82 -0.69,0.43 -1.49,0.65 -2.4,0.65 -1.17,0 -2.11,-0.35 -2.84,-1.05 -0.72,-0.69 -1.09,-1.62 -1.09,-2.76 0,-1.16 0.36,-2.09 1.08,-2.77 0.71,-0.7 1.65,-1.05 2.82,-1.05 1.17,0 2.12,0.36 2.84,1.09 0.72,0.72 1.07,1.73 1.07,3.01zm-3.94 -2.26c-0.77,0 -1.24,0.39 -1.4,1.18l2.84 0c-0.17,-0.79 -0.65,-1.18 -1.44,-1.18z"/>
   <g>
    <path class="fil3" d="M42.18 36.49c-0.04,-0.76 0.56,-1.36 1.27,-1.39 0.75,-0.03 1.36,0.56 1.39,1.28 0.03,0.75 -0.56,1.35 -1.28,1.38 -0.75,0.03 -1.35,-0.56 -1.38,-1.27zm1.17 -1.7c-0.39,0.04 -0.65,0.18 -0.93,0.41 -0.19,0.15 -0.37,0.43 -0.46,0.67 -0.08,0.21 -0.12,0.47 -0.09,0.72 0.08,0.85 0.84,1.57 1.79,1.48 0.25,-0.02 0.44,-0.09 0.63,-0.19 0.58,-0.3 0.92,-0.95 0.86,-1.6 -0.04,-0.4 -0.2,-0.71 -0.46,-0.99 -0.09,-0.1 -0.22,-0.2 -0.34,-0.27 -0.29,-0.17 -0.64,-0.26 -1,-0.23z"/>
    <path class="fil3" d="M43.21 35.86c0.08,0 0.34,-0.01 0.4,0.01 0.1,0.03 0.18,0.12 0.18,0.25 0,0.12 -0.09,0.21 -0.18,0.24 -0.06,0.02 -0.32,0.01 -0.4,0.01l0 -0.51zm-0.39 1.53l0.39 0 0 -0.64c0.05,0 0.1,0 0.15,0 0.04,0 0.11,-0.01 0.13,0.02 0.1,0.1 0.24,0.48 0.28,0.62l0.41 0 -0.07 -0.19c-0.05,-0.13 -0.08,-0.25 -0.14,-0.38l-0.09 -0.17c0.06,-0.03 0.14,-0.12 0.18,-0.17 0.28,-0.41 0,-1 -0.53,-1 -0.23,-0.01 -0.47,-0.01 -0.7,0l-0.01 1.91z"/>
   </g>
   <polygon class="fil0" points="25,22.36 25,22.96 21.09,22.96 21.09,22.36 21.09,21.77 25,21.77 "/>
   <polygon class="fil3" points="38.13,33.58 38.13,34.18 34.22,34.18 34.22,33.58 34.22,32.99 38.13,32.99 "/>
   <path class="fil2" d="M35.53 24.25l0 -3.55 2.6 0 0 10.06 -2.52 0 0 -0.88c-0.48,0.7 -1.18,1.05 -2.08,1.05 -0.96,0 -1.72,-0.35 -2.28,-1.03 -0.55,-0.69 -0.83,-1.62 -0.83,-2.78 0,-1.17 0.28,-2.1 0.83,-2.79 0.56,-0.69 1.32,-1.03 2.28,-1.03 0.86,0 1.52,0.32 2,0.95zm-2.5 2.92c0,1.15 0.43,1.72 1.28,1.72 0.84,0 1.27,-0.59 1.27,-1.77 0,-1.19 -0.43,-1.78 -1.27,-1.78 -0.85,0 -1.28,0.61 -1.28,1.83z"/>
   <path class="fil2" d="M46.41 27.4l0 0.46 -5.34 0c0.17,0.82 0.65,1.23 1.45,1.23 0.61,0 1.03,-0.21 1.29,-0.63l2.43 0c-0.2,0.78 -0.64,1.39 -1.32,1.82 -0.68,0.43 -1.48,0.65 -2.4,0.65 -1.17,0 -2.11,-0.35 -2.84,-1.05 -0.72,-0.69 -1.08,-1.62 -1.08,-2.76 0,-1.16 0.35,-2.09 1.07,-2.77 0.72,-0.7 1.66,-1.05 2.82,-1.05 1.17,0 2.12,0.36 2.84,1.09 0.72,0.72 1.08,1.73 1.08,3.01zm-3.94 -2.26c-0.78,0 -1.24,0.39 -1.4,1.18l2.84 0c-0.17,-0.79 -0.65,-1.18 -1.44,-1.18z"/>
  </g>
 </g>
</svg>
